<svg width="180" height="62" viewBox="0 0 180 62" fill="none" xmlns="http://www.w3.org/2000/svg">
<g filter="url(#filter0_d_35_148)">
<path d="M40.6244 11.8503C40.6244 11.2136 40.1087 10.6975 39.4725 10.6975H18.3587C8.4383 10.6975 3.47013 22.7012 10.4849 29.7215L14.5957 33.8355C15.0456 34.2857 15.7749 34.2857 16.2248 33.8355L26.528 23.5241C26.744 23.3079 27.037 23.1864 27.3425 23.1864H39.4725C40.1087 23.1864 40.6244 22.6703 40.6244 22.0336V11.8503Z" fill="url(#paint0_linear_35_148)" shape-rendering="crispEdges"/>
<path d="M8.88268 50.1497C8.88268 50.7864 9.39841 51.3026 10.0346 51.3026L30.7051 51.3026C37.3144 51.3026 42.6723 45.9405 42.6723 39.326C42.6723 31.7707 36.708 27.7871 29.937 27.3836C29.3019 27.3457 28.7853 27.8656 28.7853 28.5023V37.6608C28.7853 38.2975 28.2695 38.8136 27.6333 38.8136L10.0346 38.8136C9.39841 38.8136 8.88268 39.3298 8.88268 39.9665L8.88268 50.1497Z" fill="url(#paint1_linear_35_148)" shape-rendering="crispEdges"/>
<path d="M39.4725 10.8547C40.0218 10.8547 40.4672 11.3003 40.4672 11.8503V22.0336C40.4672 22.5836 40.0218 23.0293 39.4725 23.0293H27.3425C26.9953 23.0293 26.6623 23.1673 26.4168 23.413L16.1136 33.7244C15.7251 34.1131 15.0953 34.1131 14.7069 33.7244L10.5961 29.6104C3.6801 22.6889 8.57856 10.8547 18.3587 10.8547H39.4725ZM10.0346 51.1454C9.48534 51.1454 9.03986 50.6997 9.03986 50.1497L9.03986 39.9665C9.03986 39.4165 9.48534 38.9708 10.0346 38.9708L27.6333 38.9708C28.3565 38.9708 28.9424 38.3842 28.9424 37.6608V28.5023C28.9424 27.9496 29.3891 27.5084 29.9276 27.5405C33.2871 27.7407 36.4359 28.8286 38.7418 30.7926C41.0441 32.7534 42.5151 35.5943 42.5151 39.326C42.5151 45.8538 37.2275 51.1454 30.7051 51.1454L10.0346 51.1454Z" stroke="url(#paint2_linear_35_148)" stroke-width="0.314373" shape-rendering="crispEdges"/>
</g>
<path d="M71.4848 45.6511C69.5358 45.6545 67.7756 45.3056 66.2043 44.6045C64.633 43.9034 63.3184 42.9176 62.2605 41.6472C61.2296 40.3767 60.5368 38.889 60.1819 37.1842L63.8753 36.2439L64.3221 36.3243C64.6759 37.3795 65.1918 38.326 65.87 39.164C66.5753 39.9749 67.4156 40.6231 68.3909 41.1087C69.3663 41.5672 70.4224 41.7954 71.5593 41.7935C72.7233 41.7915 73.7381 41.6002 74.6037 41.2197C75.4964 40.8392 76.1993 40.3236 76.7125 39.6731C77.2257 38.9954 77.4815 38.2235 77.48 37.3572C77.478 36.2203 77.1516 35.3411 76.5009 34.7196C75.8501 34.0981 74.9018 33.626 73.6561 33.3034L68.3749 31.8507C66.0458 31.2322 64.271 30.2337 63.0504 28.8552C61.8298 27.4497 61.2179 25.8265 61.2147 23.9858C61.2121 22.4428 61.6022 21.0886 62.3852 19.9232C63.1953 18.7307 64.3171 17.7949 65.7506 17.1156C67.1841 16.4364 68.8348 16.0952 70.7027 16.0919C72.5163 16.0888 74.1411 16.4243 75.577 17.0986C77.0399 17.7457 78.2461 18.664 79.1956 19.8535C80.1722 21.0429 80.8108 22.4629 81.1115 24.1137L77.5396 24.8914L77.0928 24.8109C76.7382 23.2956 75.9917 22.1058 74.8533 21.2416C73.7149 20.3773 72.32 19.9466 70.6687 19.9495C69.0987 19.9522 67.8406 20.3333 66.8944 21.0929C65.9483 21.8255 65.4762 22.7873 65.4783 23.9784C65.48 24.98 65.8198 25.805 66.4977 26.4535C67.2026 27.102 68.2051 27.6146 69.5051 27.9913L74.7862 29.4033C77.0341 29.995 78.7547 30.953 79.9481 32.2773C81.1685 33.6016 81.7804 35.2248 81.7838 37.1468C81.7867 38.8522 81.3562 40.3418 80.4921 41.6156C79.6281 42.8894 78.4252 43.8795 76.8834 44.586C75.3417 45.2925 73.5421 45.6475 71.4848 45.6511ZM96.8309 45.6071C95.3691 45.6097 94.0422 45.3142 92.85 44.7207C91.6579 44.1273 90.655 43.3304 89.8411 42.3302C89.0273 41.3301 88.4434 40.2212 88.0893 39.0037L88.0748 30.639C88.4246 29.3932 89.0047 28.2823 89.8151 27.3064C90.6254 26.3034 91.6257 25.5166 92.8158 24.9461C94.0058 24.3485 95.3317 24.0484 96.7935 24.0459C98.6343 24.0427 100.286 24.5 101.75 25.4179C103.213 26.3357 104.379 27.606 105.248 29.2287C106.117 30.8514 106.554 32.7049 106.557 34.7893C106.561 36.8737 106.131 38.7287 105.268 40.3544C104.404 41.9802 103.242 43.268 101.782 44.218C100.322 45.1409 98.6716 45.6039 96.8309 45.6071ZM86.0024 53.1785L85.9529 24.6332L89.8104 24.6265L89.8222 31.4075L89.016 34.8197L90.037 38.2288L90.0629 53.1714L86.0024 53.1785ZM96.3371 41.8317C97.5552 41.8296 98.624 41.53 99.5433 40.9328C100.463 40.3357 101.179 39.5088 101.691 38.4522C102.231 37.3955 102.499 36.1769 102.497 34.7964C102.494 33.4158 102.222 32.1981 101.678 31.1433C101.162 30.0885 100.443 29.2776 99.5221 28.7107C98.6007 28.1168 97.5309 27.8209 96.3128 27.823C95.0946 27.8251 93.9988 28.1248 93.0253 28.722C92.0789 29.2921 91.3223 30.1055 90.7557 31.1622C90.2161 32.2189 89.9475 33.4375 89.9499 34.8181C89.9523 36.1987 90.2251 37.4164 90.7683 38.4711C91.3386 39.5259 92.098 40.3502 93.0465 40.9441C94.0221 41.538 95.1189 41.8338 96.3371 41.8317ZM110.487 45.015L110.451 24.5907L114.512 24.5836L114.547 45.0079L110.487 45.015ZM112.475 21.1763C111.717 21.1776 111.081 20.9216 110.566 20.4081C110.05 19.8676 109.792 19.2319 109.791 18.501C109.79 17.7431 110.046 17.1065 110.559 16.5913C111.072 16.0761 111.708 15.8178 112.466 15.8165C113.197 15.8152 113.82 16.0713 114.335 16.5847C114.878 17.0981 115.149 17.7338 115.151 18.4918C115.152 19.2226 114.882 19.8593 114.342 20.4016C113.828 20.9168 113.206 21.1751 112.475 21.1763ZM128.208 45.5527C126.395 45.5559 124.743 45.0985 123.252 44.1807C121.789 43.2358 120.623 41.9656 119.754 40.3699C118.884 38.7472 118.448 36.8937 118.445 34.8093C118.441 32.6978 118.871 30.8293 119.734 29.2036C120.598 27.5779 121.759 26.3035 123.22 25.3806C124.707 24.4577 126.357 23.9946 128.171 23.9915C129.633 23.9889 130.96 24.2844 132.152 24.8779C133.344 25.4714 134.347 26.2682 135.161 27.2684C135.975 28.2415 136.558 29.3503 136.913 30.595L136.927 38.9596C136.577 40.1783 135.997 41.2892 135.187 42.2922C134.376 43.2681 133.376 44.0549 132.186 44.6525C130.996 45.2501 129.67 45.5502 128.208 45.5527ZM128.689 41.7756C129.934 41.7735 131.03 41.4738 131.977 40.8766C132.923 40.2794 133.666 39.4525 134.206 38.3958C134.745 37.3392 135.014 36.1205 135.011 34.74C135.009 33.3594 134.736 32.1417 134.193 31.0869C133.65 30.0321 132.904 29.2213 131.955 28.6545C131.007 28.0606 129.91 27.7647 128.665 27.7669C127.474 27.769 126.405 28.0686 125.459 28.6658C124.539 29.2358 123.81 30.0492 123.27 31.1059C122.758 32.1625 122.503 33.3811 122.505 34.7617C122.507 36.1422 122.767 37.3599 123.283 38.4148C123.826 39.4696 124.558 40.2939 125.48 40.8879C126.428 41.4818 127.498 41.7777 128.689 41.7756ZM135.191 44.9721L135.18 38.1505L135.986 34.7383L134.965 31.3292L134.938 15.7369L138.876 15.2428L138.998 15.5674L139.049 44.9655L135.191 44.9721ZM153.473 45.5089C151.443 45.5124 149.642 45.0689 148.07 44.1783C146.526 43.2606 145.319 41.9904 144.45 40.3677C143.581 38.745 143.145 36.8644 143.141 34.7259C143.137 32.5873 143.554 30.7188 144.39 29.1202C145.253 27.4945 146.442 26.2337 147.957 25.3377C149.498 24.4147 151.27 23.9514 153.273 23.9479C155.25 23.9445 156.969 24.4017 158.433 25.3196C159.923 26.2374 161.076 27.5347 161.891 29.2117C162.733 30.8615 163.156 32.7963 163.16 35.016L163.161 35.6251L162.553 36.2352L145.214 36.2653L145.208 32.692L161.207 32.6643L159.137 33.48C159.081 32.2619 158.781 31.2202 158.238 30.3549C157.723 29.4896 157.031 28.8276 156.164 28.3689C155.324 27.8831 154.376 27.6411 153.32 27.6429C152.184 27.6449 151.142 27.9174 150.195 28.4605C149.249 29.0035 148.506 29.7627 147.966 30.7382C147.453 31.6865 147.198 32.7969 147.2 34.0692L147.202 35.2873C147.205 36.5325 147.477 37.6555 148.02 38.6561C148.563 39.6297 149.309 40.3999 150.258 40.9667C151.206 41.5335 152.276 41.8159 153.467 41.8139C154.604 41.8119 155.605 41.5259 156.47 40.956C157.362 40.3589 158.065 39.5726 158.578 38.5972L159.065 38.5964L162.356 40.0118C161.574 41.7186 160.413 43.0606 158.871 44.0378C157.33 45.015 155.531 45.5054 153.473 45.5089ZM167.089 44.9168L167.053 24.4925L170.911 24.4858L170.92 29.9675L169.823 29.604C170.362 28.033 171.28 26.7862 172.578 25.8635C173.903 24.9408 175.418 24.478 177.123 24.4751L179.113 24.4716L179.119 28.2073L176.48 28.2118C175.397 28.2137 174.45 28.4725 173.639 28.9883C172.855 29.4769 172.233 30.1683 171.775 31.0624C171.343 31.9564 171.128 33.0125 171.131 34.2307L171.149 44.9098L167.089 44.9168Z" fill="white"/>
<defs>
<filter id="filter0_d_35_148" x="0.850835" y="4.34717" width="48.1714" height="53.3057" filterUnits="userSpaceOnUse" color-interpolation-filters="sRGB">
<feFlood flood-opacity="0" result="BackgroundImageFix"/>
<feColorMatrix in="SourceAlpha" type="matrix" values="0 0 0 0 0 0 0 0 0 0 0 0 0 0 0 0 0 0 127 0" result="hardAlpha"/>
<feOffset/>
<feGaussianBlur stdDeviation="3.17517"/>
<feComposite in2="hardAlpha" operator="out"/>
<feColorMatrix type="matrix" values="0 0 0 0 1 0 0 0 0 1 0 0 0 0 1 0 0 0 0.35 0"/>
<feBlend mode="normal" in2="BackgroundImageFix" result="effect1_dropShadow_35_148"/>
<feBlend mode="normal" in="SourceGraphic" in2="effect1_dropShadow_35_148" result="shape"/>
</filter>
<linearGradient id="paint0_linear_35_148" x1="18.5797" y1="10.5596" x2="35.1048" y2="41.3403" gradientUnits="userSpaceOnUse">
<stop stop-color="#F8F8F8" stop-opacity="0.9"/>
<stop offset="1" stop-color="#F8F8F8" stop-opacity="0.2"/>
</linearGradient>
<linearGradient id="paint1_linear_35_148" x1="18.5797" y1="10.5596" x2="35.1048" y2="41.3403" gradientUnits="userSpaceOnUse">
<stop stop-color="#F8F8F8" stop-opacity="0.9"/>
<stop offset="1" stop-color="#F8F8F8" stop-opacity="0.2"/>
</linearGradient>
<linearGradient id="paint2_linear_35_148" x1="24.9367" y1="10.6975" x2="24.9367" y2="51.3026" gradientUnits="userSpaceOnUse">
<stop stop-color="#999999" stop-opacity="0"/>
<stop offset="1" stop-color="#F6F6F6"/>
</linearGradient>
</defs>
</svg>
