<svg width="74" height="75" viewBox="0 0 74 75" fill="none" xmlns="http://www.w3.org/2000/svg">
<path d="M22.1969 7.89844C20.2343 7.89844 18.3521 8.67808 16.9643 10.0658C15.5765 11.4536 14.7969 13.3358 14.7969 15.2984V33.5643C16.0064 33.2224 17.245 32.9932 18.4969 32.8798V15.2984C18.4969 14.3171 18.8867 13.376 19.5806 12.6821C20.2745 11.9883 21.2156 11.5984 22.1969 11.5984H36.9969V24.5484C36.9969 26.0204 37.5816 27.4321 38.6224 28.4729C39.6633 29.5137 41.0749 30.0984 42.5469 30.0984H55.4969V59.6984C55.4969 60.6797 55.1071 61.6208 54.4132 62.3147C53.7193 63.0086 52.7782 63.3984 51.7969 63.3984H39.4769C38.8035 64.7165 37.9884 65.9572 37.046 67.0984H51.7969C53.7595 67.0984 55.6417 66.3188 57.0295 64.931C58.4172 63.5433 59.1969 61.661 59.1969 59.6984V27.9302C59.1956 26.4588 58.61 25.0481 57.5689 24.0082L43.0871 9.52274C42.0466 8.48297 40.636 7.89875 39.1651 7.89844H22.1969ZM54.731 26.3984H42.5469C42.0562 26.3984 41.5857 26.2035 41.2387 25.8566C40.8918 25.5096 40.6969 25.0391 40.6969 24.5484V12.3643L54.731 26.3984Z" fill="white"/>
<path d="M20.3539 69.8016C24.5048 69.8016 28.4856 68.1526 31.4207 65.2176C34.3558 62.2825 36.0047 58.3016 36.0047 54.1508C36.0047 49.9999 34.3558 46.0191 31.4207 43.084C28.4856 40.1489 24.5048 38.5 20.3539 38.5C16.2031 38.5 12.2222 40.1489 9.28713 43.084C6.35204 46.0191 4.70313 49.9999 4.70312 54.1508C4.70313 58.3016 6.35204 62.2825 9.28713 65.2176C12.2222 68.1526 16.2031 69.8016 20.3539 69.8016ZM28.541 52.9231C28.7025 53.0847 28.8305 53.2766 28.9178 53.4878C29.0051 53.699 29.0499 53.9253 29.0498 54.1538C29.0496 54.3822 29.0044 54.6085 28.9168 54.8195C28.8292 55.0305 28.7009 55.2223 28.5393 55.3837C28.3776 55.5452 28.1857 55.6732 27.9745 55.7605C27.7634 55.8478 27.5371 55.8926 27.3086 55.8925C27.0801 55.8923 26.8539 55.8471 26.6428 55.7595C26.4318 55.672 26.2401 55.5437 26.0786 55.382L22.0929 51.3928V61.1067C22.0929 61.5679 21.9097 62.0102 21.5835 62.3363C21.2574 62.6624 20.8151 62.8457 20.3539 62.8457C19.8927 62.8457 19.4504 62.6624 19.1243 62.3363C18.7981 62.0102 18.6149 61.5679 18.6149 61.1067V51.3928L14.6292 55.382C14.3031 55.7085 13.8607 55.8921 13.3992 55.8925C12.9378 55.8928 12.4951 55.7098 12.1685 55.3837C11.842 55.0576 11.6584 54.6152 11.6581 54.1538C11.6577 53.6923 11.8407 53.2496 12.1668 52.9231L19.1227 45.9672C19.4463 45.6425 19.8851 45.4588 20.3435 45.4559H20.3643C20.8176 45.4587 21.2519 45.6384 21.5747 45.9567L21.5851 45.9672L28.541 52.9231Z" fill="#798682"/>
</svg>
