<svg width="72" height="73" viewBox="0 0 72 73" fill="none" xmlns="http://www.w3.org/2000/svg">
<rect y="0.412109" width="72" height="72" rx="12" fill="url(#paint0_linear_8152_112124)" fill-opacity="0.67"/>
<rect x="0.75" y="1.16211" width="70.5" height="70.5" rx="11.25" stroke="url(#paint1_linear_8152_112124)" stroke-opacity="0.15" stroke-width="1.5"/>
<rect x="14" y="14.4121" width="44" height="44" rx="22" fill="#F8F8F8" fill-opacity="0.21"/>
<path d="M27 37.4121C27 37.1469 27.1054 36.8925 27.2929 36.705C27.4804 36.5175 27.7348 36.4121 28 36.4121H32C32.2652 36.4121 32.5196 36.5175 32.7071 36.705C32.8946 36.8925 33 37.1469 33 37.4121V43.4121C33 43.6773 32.8946 43.9317 32.7071 44.1192C32.5196 44.3068 32.2652 44.4121 32 44.4121H28C27.7348 44.4121 27.4804 44.3068 27.2929 44.1192C27.1054 43.9317 27 43.6773 27 43.4121V37.4121Z" stroke="white" stroke-width="1.5" stroke-linecap="round" stroke-linejoin="round"/>
<path d="M39 33.4121C39 33.1469 39.1054 32.8925 39.2929 32.705C39.4804 32.5175 39.7348 32.4121 40 32.4121H44C44.2652 32.4121 44.5196 32.5175 44.7071 32.705C44.8946 32.8925 45 33.1469 45 33.4121V43.4121C45 43.6773 44.8946 43.9317 44.7071 44.1192C44.5196 44.3068 44.2652 44.4121 44 44.4121H40C39.7348 44.4121 39.4804 44.3068 39.2929 44.1192C39.1054 43.9317 39 43.6773 39 43.4121V33.4121Z" stroke="white" stroke-width="1.5" stroke-linecap="round" stroke-linejoin="round"/>
<path d="M33 29.4121C33 29.1469 33.1054 28.8925 33.2929 28.705C33.4804 28.5175 33.7348 28.4121 34 28.4121H38C38.2652 28.4121 38.5196 28.5175 38.7071 28.705C38.8946 28.8925 39 29.1469 39 29.4121V43.4121C39 43.6773 38.8946 43.9317 38.7071 44.1192C38.5196 44.3068 38.2652 44.4121 38 44.4121H34C33.7348 44.4121 33.4804 44.3068 33.2929 44.1192C33.1054 43.9317 33 43.6773 33 43.4121V29.4121Z" stroke="white" stroke-width="1.5" stroke-linecap="round" stroke-linejoin="round"/>
<path d="M28 44.4121H42" stroke="white" stroke-width="1.5" stroke-linecap="round" stroke-linejoin="round"/>
<defs>
<linearGradient id="paint0_linear_8152_112124" x1="9" y1="6.41211" x2="36" y2="72.4121" gradientUnits="userSpaceOnUse">
<stop stop-color="#00EFED" stop-opacity="0.83"/>
<stop offset="1" stop-color="#9747FF"/>
</linearGradient>
<linearGradient id="paint1_linear_8152_112124" x1="19" y1="0.41211" x2="65.0154" y2="73.6559" gradientUnits="userSpaceOnUse">
<stop stop-color="white" stop-opacity="0.62"/>
<stop offset="0.4" stop-color="white" stop-opacity="0.01"/>
<stop offset="0.6" stop-color="white" stop-opacity="0.01"/>
<stop offset="1" stop-color="white" stop-opacity="0.1"/>
</linearGradient>
</defs>
</svg>
