<svg width="1083" height="80" viewBox="0 0 1083 80" fill="none" xmlns="http://www.w3.org/2000/svg">
<path fill-rule="evenodd" clip-rule="evenodd" d="M31.4707 30.7727C32.7198 29.5465 31.9034 27.4159 30.1572 27.3449L1.91279 26.1962C0.844082 26.1527 4.42674e-06 25.2709 4.22261e-06 24.1978L0 2.00002C-2.10119e-07 0.895446 0.892541 1.54022e-05 1.99354 1.51872e-05L77.7481 3.89417e-07C78.8491 1.7435e-07 79.7417 0.895434 79.7417 2L79.7417 78C79.7417 79.1046 78.8491 80 77.7481 80H56.1784C55.0929 80 54.207 79.1288 54.1852 78.0401L53.6465 51.0553C53.6114 49.2952 51.4903 48.4359 50.2468 49.6781L31.2955 68.6092C30.5233 69.3805 29.2767 69.3869 28.4967 68.6235L12.1396 52.6138C11.3385 51.8297 11.3376 50.538 12.1374 49.7527L31.4707 30.7727Z" fill="#F1EEE9"/>
<path d="M142.002 44.8956L142 44.8933V38.8825C142 31.8331 136.059 26.1184 128.732 26.1184C121.404 26.1184 115.463 31.8331 115.463 38.8825V78C115.463 79.1046 114.571 80 113.47 80H90.457C89.356 80 88.4634 79.1046 88.4634 78V2C88.4634 0.895434 89.356 0 90.457 0H139.952C141.053 0 141.945 0.89543 141.945 2V10.1184C141.945 18.9549 149.085 26.1184 157.893 26.1184H166.212C167.313 26.1184 168.205 27.0138 168.205 28.1184V78C168.205 79.1046 167.313 80 166.212 80H143.998C142.897 80 142.004 79.1046 142.004 78V44.8979L142.002 44.8956Z" fill="#F1EEE9"/>
<path d="M226.012 75.6778L214.031 75.6986L213.91 6.18759L225.987 6.16664L262.216 60.7809L258.697 60.787L258.603 6.11009L270.584 6.08931L270.705 75.6003L258.723 75.6211L222.399 21.1021L225.917 21.096L226.012 75.6778Z" fill="#F1EEE9"/>
<path d="M345.428 75.4708L302.257 75.5456L302.136 6.0346L345.307 5.95974L345.327 17.1804L310.048 17.2416L314.32 13.3354L314.358 35.1111L342.125 35.063L342.143 45.8082L314.377 45.8563L314.416 68.2026L310.13 64.3113L345.408 64.2501L345.428 75.4708Z" fill="#F1EEE9"/>
<path d="M374.177 50.0317L374.1 5.90982L386.272 5.88871L386.347 49.2499C386.356 54.258 387.694 58.091 390.361 60.7489C393.028 63.4068 396.802 64.7315 401.683 64.7231C406.628 64.7145 410.429 63.3766 413.087 60.7095C415.745 57.979 417.07 54.1413 417.061 49.1966L416.986 5.83545L429.158 5.81435L429.234 49.9363C429.243 55.3247 428.11 60.0178 425.835 64.0156C423.623 67.9498 420.459 71.0299 416.342 73.2558C412.225 75.4183 407.346 76.5045 401.704 76.5143C396.125 76.524 391.274 75.4547 387.149 73.3064C383.025 71.1582 379.818 68.0892 377.529 64.0993C375.304 60.1094 374.186 55.4202 374.177 50.0317Z" fill="#F1EEE9"/>
<path d="M472.586 75.2503L460.415 75.2714L460.294 5.76035L486.825 5.71435C494.685 5.70072 500.806 7.59192 505.187 11.3879C509.631 15.1839 511.859 20.5051 511.871 27.3516C511.879 31.9793 510.808 35.9433 508.659 39.2435C506.572 42.4802 503.47 44.9579 499.353 46.6767L512.62 75.1809L499.307 75.204L487.471 49.2647L472.541 49.2906L472.586 75.2503ZM472.485 16.5795L472.523 38.5454L486.881 38.5205C490.748 38.5138 493.758 37.526 495.91 35.5571C498.062 33.5881 499.135 30.8603 499.129 27.3737C499.123 23.887 498.041 21.2264 495.882 19.3917C493.723 17.4936 490.71 16.5479 486.843 16.5546L472.485 16.5795Z" fill="#F1EEE9"/>
<path d="M546.179 75.1227L533.627 75.1444L558.61 5.58987L571.067 5.56827L596.292 75.0358L583.454 75.058L577.816 58.9975L551.857 59.0425L546.179 75.1227ZM563.306 26.3115L555.357 48.7667L574.28 48.7338L566.254 26.3064C565.998 25.3559 565.711 24.4055 565.393 23.4551C565.074 22.5048 564.883 21.681 564.818 20.9838C564.692 21.6179 564.472 22.4424 564.157 23.4573C563.905 24.4086 563.621 25.36 563.306 26.3115Z" fill="#F1EEE9"/>
<path d="M633.224 5.46049L633.345 74.9715L621.173 74.9926L621.053 5.4816L633.224 5.46049ZM623.265 74.989L623.246 63.7683L662.328 63.7006L662.347 74.9212L623.265 74.989Z" fill="#F1EEE9"/>
<path d="M742.352 5.27127L742.472 74.7823L730.301 74.8034L730.18 5.29237L742.352 5.27127ZM757.74 50.793L739.483 50.8246L739.464 39.9843L755.154 39.9571C759.338 39.9499 762.506 38.8984 764.658 36.8027C766.873 34.6434 767.977 31.662 767.97 27.8584C767.964 24.0548 766.849 21.1406 764.627 19.1159C762.468 17.091 759.36 16.0821 755.303 16.0891L738.282 16.1186L738.263 5.27836L757.661 5.24472C762.352 5.23658 766.411 6.18045 769.838 8.07632C773.264 9.97219 775.931 12.6301 777.839 16.0501C779.747 19.4066 780.705 23.3671 780.713 27.9314C780.72 32.369 779.776 36.3327 777.88 39.8226C775.985 43.2492 773.327 45.948 769.907 47.9192C766.487 49.8269 762.431 50.7849 757.74 50.793Z" fill="#F1EEE9"/>
<path d="M809.379 74.6663L796.827 74.6881L821.81 5.13348L834.267 5.11188L859.491 74.5794L846.654 74.6016L841.016 58.5411L815.056 58.5861L809.379 74.6663ZM826.505 25.8551L818.557 48.3103L837.48 48.2775L829.453 25.85C829.198 24.8995 828.911 23.9491 828.592 22.9988C828.274 22.0484 828.082 21.2246 828.018 20.5274C827.892 21.1616 827.671 21.9861 827.356 23.0009C827.104 23.9522 826.821 24.9036 826.505 25.8551Z" fill="#F1EEE9"/>
<path d="M904.476 10.7907L904.586 74.5012L892.415 74.5223L892.304 10.8118L904.476 10.7907ZM871.964 16.2672L871.945 5.04655L924.815 4.95487L924.835 16.1755L871.964 16.2672Z" fill="#F1EEE9"/>
<path d="M962.577 74.4006L950.405 74.4217L950.285 4.91071L962.456 4.8896L962.506 33.702L993.315 33.6485L993.265 4.83618L1005.44 4.81507L1005.56 74.3261L993.386 74.3472L993.335 44.8692L962.525 44.9226L962.577 74.4006Z" fill="#F1EEE9"/>
<path d="M1032.97 24.1658C1032.96 20.1086 1034 16.5251 1036.09 13.4152C1038.18 10.3053 1041.06 7.8913 1044.73 6.1733C1048.47 4.39179 1052.78 3.49681 1057.66 3.48834C1062.35 3.48021 1066.41 4.29729 1069.84 5.93958C1073.32 7.58177 1076.02 9.92266 1077.93 12.9623C1079.9 16.0017 1080.95 19.6134 1081.09 23.7971L1068.92 23.8182C1068.78 20.8389 1067.7 18.5269 1065.67 16.8822C1063.64 15.1741 1060.91 14.323 1057.49 14.329C1053.75 14.3355 1050.74 15.1965 1048.46 16.9121C1046.24 18.5642 1045.14 20.8482 1045.14 23.7643C1045.15 26.2367 1045.82 28.2007 1047.15 29.6565C1048.55 31.0487 1050.7 32.091 1053.62 32.7833L1064.56 35.2366C1070.52 36.4942 1074.96 38.6736 1077.89 41.7748C1080.81 44.8126 1082.27 48.9307 1082.28 54.1289C1082.29 58.3763 1081.25 62.1184 1079.16 65.3551C1077.08 68.5918 1074.1 71.101 1070.24 72.8827C1066.44 74.6009 1061.97 75.4645 1056.83 75.4734C1051.95 75.4818 1047.67 74.6651 1043.99 73.0233C1040.31 71.318 1037.42 68.9458 1035.33 65.9065C1033.29 62.8671 1032.21 59.2873 1032.07 55.1669L1044.25 55.1458C1044.31 58.0618 1045.46 60.3737 1047.68 62.0815C1049.97 63.7257 1053.04 64.5445 1056.91 64.5378C1060.97 64.5308 1064.17 63.7011 1066.51 62.0488C1068.92 60.333 1070.12 58.0805 1070.11 55.2911C1070.11 52.8822 1069.47 50.9815 1068.2 49.589C1066.93 48.1332 1064.87 47.1224 1062.01 46.5568L1050.98 44.1036C1045.08 42.846 1040.61 40.5716 1037.56 37.2804C1034.51 33.9258 1032.98 29.5543 1032.97 24.1658Z" fill="#F1EEE9"/>
</svg>
