<svg width="72" height="73" viewBox="0 0 72 73" fill="none" xmlns="http://www.w3.org/2000/svg">
<rect y="0.412109" width="72" height="72" rx="12" fill="url(#paint0_linear_8152_112112)" fill-opacity="0.67"/>
<rect x="0.75" y="1.16211" width="70.5" height="70.5" rx="11.25" stroke="url(#paint1_linear_8152_112112)" stroke-opacity="0.15" stroke-width="1.5"/>
<rect x="14" y="14.4121" width="44" height="44" rx="22" fill="#F8F8F8" fill-opacity="0.21"/>
<path d="M38 27.4121V31.4121C38 31.6773 38.1054 31.9317 38.2929 32.1192C38.4804 32.3068 38.7348 32.4121 39 32.4121H43" stroke="white" stroke-width="1.5" stroke-linecap="round" stroke-linejoin="round"/>
<path d="M41 45.4121H31C30.4696 45.4121 29.9609 45.2014 29.5858 44.8263C29.2107 44.4512 29 43.9425 29 43.4121V29.4121C29 28.8817 29.2107 28.373 29.5858 27.9979C29.9609 27.6228 30.4696 27.4121 31 27.4121H38L43 32.4121V43.4121C43 43.9425 42.7893 44.4512 42.4142 44.8263C42.0391 45.2014 41.5304 45.4121 41 45.4121Z" stroke="white" stroke-width="1.5" stroke-linecap="round" stroke-linejoin="round"/>
<path d="M33 39.4121L35 41.4121L39 37.4121" stroke="white" stroke-width="1.5" stroke-linecap="round" stroke-linejoin="round"/>
<defs>
<linearGradient id="paint0_linear_8152_112112" x1="9" y1="6.41211" x2="36" y2="72.4121" gradientUnits="userSpaceOnUse">
<stop stop-color="#00EFED" stop-opacity="0.83"/>
<stop offset="1" stop-color="#9747FF"/>
</linearGradient>
<linearGradient id="paint1_linear_8152_112112" x1="19" y1="0.41211" x2="65.0154" y2="73.6559" gradientUnits="userSpaceOnUse">
<stop stop-color="white" stop-opacity="0.62"/>
<stop offset="0.4" stop-color="white" stop-opacity="0.01"/>
<stop offset="0.6" stop-color="white" stop-opacity="0.01"/>
<stop offset="1" stop-color="white" stop-opacity="0.1"/>
</linearGradient>
</defs>
</svg>
