<svg width="72" height="73" viewBox="0 0 72 73" fill="none" xmlns="http://www.w3.org/2000/svg">
<rect y="0.412109" width="72" height="72" rx="12" fill="url(#paint0_linear_8152_112136)" fill-opacity="0.67"/>
<rect x="0.75" y="1.16211" width="70.5" height="70.5" rx="11.25" stroke="url(#paint1_linear_8152_112136)" stroke-opacity="0.15" stroke-width="1.5"/>
<rect x="14" y="14.4121" width="44" height="44" rx="22" fill="#F8F8F8" fill-opacity="0.21"/>
<path d="M29 31.4121C29 32.473 29.4214 33.4904 30.1716 34.2405C30.9217 34.9907 31.9391 35.4121 33 35.4121C34.0609 35.4121 35.0783 34.9907 35.8284 34.2405C36.5786 33.4904 37 32.473 37 31.4121C37 30.3512 36.5786 29.3338 35.8284 28.5837C35.0783 27.8335 34.0609 27.4121 33 27.4121C31.9391 27.4121 30.9217 27.8335 30.1716 28.5837C29.4214 29.3338 29 30.3512 29 31.4121Z" stroke="white" stroke-width="1.5" stroke-linecap="round" stroke-linejoin="round"/>
<path d="M27 45.4121V43.4121C27 42.3512 27.4214 41.3338 28.1716 40.5837C28.9217 39.8335 29.9391 39.4121 31 39.4121H35C36.0609 39.4121 37.0783 39.8335 37.8284 40.5837C38.5786 41.3338 39 42.3512 39 43.4121V45.4121" stroke="white" stroke-width="1.5" stroke-linecap="round" stroke-linejoin="round"/>
<path d="M40 27.543C40.8604 27.7633 41.623 28.2637 42.1676 28.9653C42.7122 29.6669 43.0078 30.5298 43.0078 31.418C43.0078 32.3061 42.7122 33.169 42.1676 33.8707C41.623 34.5723 40.8604 35.0727 40 35.293" stroke="white" stroke-width="1.5" stroke-linecap="round" stroke-linejoin="round"/>
<path d="M45 45.4125V43.4125C44.9949 42.5297 44.6979 41.6733 44.1553 40.9769C43.6126 40.2805 42.8548 39.7832 42 39.5625" stroke="white" stroke-width="1.5" stroke-linecap="round" stroke-linejoin="round"/>
<defs>
<linearGradient id="paint0_linear_8152_112136" x1="9" y1="6.41211" x2="36" y2="72.4121" gradientUnits="userSpaceOnUse">
<stop stop-color="#00EFED" stop-opacity="0.83"/>
<stop offset="1" stop-color="#9747FF"/>
</linearGradient>
<linearGradient id="paint1_linear_8152_112136" x1="19" y1="0.41211" x2="65.0154" y2="73.6559" gradientUnits="userSpaceOnUse">
<stop stop-color="white" stop-opacity="0.62"/>
<stop offset="0.4" stop-color="white" stop-opacity="0.01"/>
<stop offset="0.6" stop-color="white" stop-opacity="0.01"/>
<stop offset="1" stop-color="white" stop-opacity="0.1"/>
</linearGradient>
</defs>
</svg>
