<svg width="18" height="19" viewBox="0 0 18 19" fill="none" xmlns="http://www.w3.org/2000/svg">
<path d="M17.2093 12.6616H15.25C13.5931 12.6616 12.25 14.0048 12.25 15.6616V17.6209M17.2093 12.6616C17.2362 12.4998 17.25 12.3351 17.25 12.169V4.16162C17.25 2.50477 15.9069 1.16162 14.25 1.16162H3.75C2.09315 1.16162 0.75 2.50477 0.75 4.16162V14.6616C0.75 16.3185 2.09315 17.6616 3.75 17.6616H11.7574C11.9235 17.6616 12.0882 17.6478 12.25 17.6209M17.2093 12.6616C17.1072 13.2746 16.8164 13.8452 16.3713 14.2903L13.8787 16.7829C13.4336 17.2281 12.8629 17.5189 12.25 17.6209M5.75 6.16162H12.25M5.75 10.1616H8.25" stroke="white" stroke-opacity="0.7" stroke-width="1.5" stroke-linecap="round" stroke-linejoin="round"/>
</svg>
